<?xml version="1.0" encoding="UTF-8"?>
<svg id="Layer_1" data-name="Layer 1" xmlns="http://www.w3.org/2000/svg" viewBox="0 0 1610.18 1443.67">
  <defs>
    <style>
      .cls-1 {
        opacity: .95;
      }

      .cls-1, .cls-2, .cls-3, .cls-4, .cls-5, .cls-6, .cls-7, .cls-8, .cls-9, .cls-10, .cls-11, .cls-12, .cls-13, .cls-14, .cls-15, .cls-16, .cls-17, .cls-18, .cls-19, .cls-20, .cls-21, .cls-22, .cls-23, .cls-24, .cls-25, .cls-26, .cls-27, .cls-28, .cls-29, .cls-30, .cls-31, .cls-32, .cls-33, .cls-34, .cls-35, .cls-36, .cls-37, .cls-38, .cls-39, .cls-40, .cls-41, .cls-42, .cls-43, .cls-44, .cls-45, .cls-46, .cls-47, .cls-48, .cls-49, .cls-50, .cls-51, .cls-52, .cls-53, .cls-54, .cls-55, .cls-56, .cls-57, .cls-58, .cls-59, .cls-60, .cls-61 {
        fill-rule: evenodd;
        isolation: isolate;
      }

      .cls-1, .cls-52 {
        fill: #00acfc;
      }

      .cls-2, .cls-18 {
        opacity: .99;
      }

      .cls-2, .cls-50 {
        fill: #00bdf9;
      }

      .cls-3 {
        opacity: .95;
      }

      .cls-3, .cls-37 {
        fill: #00c0f9;
      }

      .cls-4 {
        fill: #00caf7;
      }

      .cls-4, .cls-47, .cls-58 {
        opacity: .99;
      }

      .cls-5 {
        opacity: .98;
      }

      .cls-5, .cls-26, .cls-56 {
        fill: #00b2fb;
      }

      .cls-6, .cls-26 {
        opacity: .97;
      }

      .cls-6, .cls-28, .cls-44 {
        fill: #00e1f2;
      }

      .cls-7, .cls-16, .cls-36 {
        fill: #00d7f4;
      }

      .cls-7, .cls-37 {
        opacity: .97;
      }

      .cls-8, .cls-36, .cls-55 {
        opacity: .99;
      }

      .cls-8, .cls-61 {
        fill: #00d1f6;
      }

      .cls-9, .cls-11, .cls-42, .cls-58 {
        fill: #00c4f8;
      }

      .cls-9, .cls-45 {
        opacity: .97;
      }

      .cls-10 {
        fill: #00bcfa;
        opacity: .99;
      }

      .cls-11, .cls-15 {
        opacity: .98;
      }

      .cls-12 {
        opacity: .96;
      }

      .cls-12, .cls-51 {
        fill: #00d1f5;
      }

      .cls-13, .cls-24, .cls-27, .cls-45 {
        fill: #00abfc;
      }

      .cls-13, .cls-25 {
        opacity: .97;
      }

      .cls-14 {
        fill: #00b1fb;
        opacity: .98;
      }

      .cls-15, .cls-25, .cls-60 {
        fill: #00dbf3;
      }

      .cls-16, .cls-46 {
        opacity: .98;
      }

      .cls-17 {
        opacity: .99;
      }

      .cls-17, .cls-41, .cls-46 {
        fill: #00b8fa;
      }

      .cls-18, .cls-55 {
        fill: #00bff9;
      }

      .cls-19 {
        opacity: .93;
      }

      .cls-19, .cls-54 {
        fill: #00cbf7;
      }

      .cls-20 {
        opacity: .51;
      }

      .cls-20, .cls-30, .cls-59 {
        fill: #00a7fd;
      }

      .cls-21 {
        fill: #00b9fa;
        opacity: .93;
      }

      .cls-22 {
        fill: #00cef7;
        opacity: .46;
      }

      .cls-23 {
        fill: #00b5fb;
        opacity: .46;
      }

      .cls-24 {
        opacity: .96;
      }

      .cls-27 {
        opacity: .95;
      }

      .cls-28 {
        opacity: .96;
      }

      .cls-29 {
        fill: #00bdfa;
        opacity: .96;
      }

      .cls-30 {
        opacity: .81;
      }

      .cls-31 {
        opacity: .85;
      }

      .cls-31, .cls-38 {
        fill: #00cdf7;
      }

      .cls-32 {
        opacity: .8;
      }

      .cls-32, .cls-33 {
        fill: #00a1fd;
      }

      .cls-33 {
        opacity: .54;
      }

      .cls-34 {
        fill: #00bbfa;
        opacity: .77;
      }

      .cls-35 {
        fill: #00d2f5;
        opacity: .94;
      }

      .cls-38 {
        opacity: .88;
      }

      .cls-39 {
        opacity: .95;
      }

      .cls-39, .cls-49, .cls-53 {
        fill: #00a6fd;
      }

      .cls-40 {
        fill: #00eaf0;
        opacity: .97;
      }

      .cls-41 {
        opacity: .98;
      }

      .cls-42, .cls-43 {
        opacity: .97;
      }

      .cls-43 {
        fill: #00e9f0;
      }

      .cls-44 {
        opacity: .17;
      }

      .cls-47, .cls-57 {
        fill: #00def3;
      }

      .cls-48 {
        fill: #00e7f0;
        opacity: .79;
      }

      .cls-49 {
        opacity: .89;
      }

      .cls-50 {
        opacity: .92;
      }

      .cls-51 {
        opacity: .97;
      }

      .cls-52 {
        opacity: .92;
      }

      .cls-53 {
        opacity: .92;
      }

      .cls-54, .cls-60 {
        opacity: .98;
      }

      .cls-56, .cls-61 {
        opacity: .98;
      }

      .cls-57 {
        opacity: .98;
      }

      .cls-59 {
        opacity: .9;
      }
    </style>
  </defs>
  <path class="cls-59" d="M262.29,68.67c-8.98-.9-17.98-1.57-27-2,22.26-21.82,44.59-43.65,67-65.5,1.87-1.56,3.87-1.56,6,0-.95.48-1.95.65-3,.5.61,5.12-.56,9.79-3.5,14-13.77,17.26-26.93,34.93-39.5,53Z"/>
  <path class="cls-32" d="M1328.29,24.67h-12c-4.75-4.6-8.09-10.1-10-16.5.33-.83.67-1.67,1-2.5,7.34,6.01,14.34,12.35,21,19Z"/>
  <path class="cls-33" d="M1130.29,11.67h-1c-.13-.88.2-1.54,1-2,1.27.76,1.27,1.42,0,2Z"/>
  <path class="cls-49" d="M403.29,78.67c-7.92-1.04-15.92-1.71-24-2,29.03-23.69,59.36-45.69,91-66,2.45.93,3.28,2.59,2.5,5-23.64,20.47-46.8,41.47-69.5,63Z"/>
  <path class="cls-53" d="M1129.29,11.67h1c4.55.46,8.89,1.96,13,4.5,34.51,23.51,68.18,48.17,101,74,17.28,14.15,31.61,30.65,43,49.5-12.35-.86-24.69-1.86-37-3-11.82-17.33-24.98-33.66-39.5-49-25.08-26.76-52.25-50.93-81.5-72.5-1.29-1.29-1.29-2.46,0-3.5Z"/>
  <path class="cls-39" d="M1316.29,24.67h12c38.33,34.83,74.83,71.49,109.5,110,4.05,5.21,7.89,10.54,11.5,16-16.33-1.05-32.66-2.05-49-3-7.28-11.78-14.78-23.45-22.5-35-20.77-29.22-41.27-58.55-61.5-88Z"/>
  <path class="cls-24" d="M235.29,66.67c9.02.43,18.02,1.1,27,2-27.4,35.79-52.07,73.45-74,113-15.98-1.35-31.98-2.35-48-3,25.73-42.09,57.39-79.42,95-112Z"/>
  <path class="cls-27" d="M379.29,76.67c8.08.29,16.08.96,24,2-17.85,18.68-34.02,38.68-48.5,60-10.56,16.46-18.4,34.13-23.5,53-11.73-.86-23.39-1.86-35-3,9.57-33.31,26.9-61.81,52-85.5,10.21-9.04,20.54-17.88,31-26.5Z"/>
  <path class="cls-20" d="M563.29,89.67c-1.33-.33-2.67-.67-4-1,6.75-14.9,8.08-14.57,4,1Z"/>
  <path class="cls-30" d="M1072.29,124.67c-4.34-.24-8.68-.57-13-1-5.33-12.31-9-24.97-11-38,7.76,13.2,15.76,26.2,24,39Z"/>
  <path class="cls-52" d="M559.29,88.67c1.33.33,2.67.67,4,1-12.9,42.49-33.57,80.48-62,114-11.32-1.09-22.65-2.09-34-3,18.33-17.17,35.83-35.17,52.5-54,14.91-18.15,28.07-37.48,39.5-58Z"/>
  <path class="cls-1" d="M1059.29,123.67c4.32.43,8.66.76,13,1,13.63,19.14,28.63,37.31,45,54.5,20.15,15.58,40.49,30.91,61,46,17.06,9.53,34.06,19.03,51,28.5-24.67-1.57-49.34-3.24-74-5-19.65-12.43-36.82-27.77-51.5-46-13.84-19-26.17-39-37-60-3-6.16-5.5-12.49-7.5-19Z"/>
  <path class="cls-45" d="M1250.29,136.67c12.31,1.14,24.65,2.14,37,3,18.05,28.31,28.88,59.31,32.5,93,1.11,8.97,1.61,17.97,1.5,27-12.68-.38-25.35-1.05-38-2,1.97-43.77-9.03-84.11-33-121Z"/>
  <path class="cls-13" d="M1400.29,147.67c16.34.95,32.67,1.95,49,3,26.39,37.79,46.73,78.79,61,123-17.95-1.64-35.95-2.98-54-4-12.72-43.52-31.38-84.19-56-122Z"/>
  <path class="cls-5" d="M140.29,178.67c16.02.65,32.02,1.65,48,3-23.6,42.87-38.93,88.54-46,137-18.42-.82-36.76-2.15-55-4,9.45-48.7,27.11-94.03,53-136Z"/>
  <path class="cls-26" d="M296.29,188.67c11.61,1.14,23.27,2.14,35,3-8.51,27.27-8.68,54.6-.5,82,1.4.62,2.9.95,4.5,1,7.3-1.6,14.3-4.1,21-7.5,34.99-16.15,67.66-35.81,98-59,4.99-1.52,9.33-4.02,13-7.5,11.35.91,22.68,1.91,34,3-6.97,9.08-14.3,17.91-22,26.5-28.67,22-57.33,44-86,66-13.84,12.34-27.5,24.84-41,37.5-25.64-2.09-51.3-3.76-77-5,2.79-8.49,4.96-17.16,6.5-26,1.38-24.44,3.71-48.78,7-73,1.64-13.84,4.14-27.51,7.5-41Z"/>
  <path class="cls-14" d="M1155.29,248.67c24.66,1.76,49.33,3.43,74,5,14.4,7.86,29.06,15.2,44,22,1.61-.14,2.94-.8,4-2,2.32-5.32,4.32-10.66,6-16,12.65.95,25.32,1.62,38,2,1.02,23.76,5.18,47.09,12.5,70,10.95,27.26,25.45,52.26,43.5,75-24.32-1.8-48.66-3.47-73-5-13.47-21.32-27.97-41.98-43.5-62-32.18-33.61-67.35-63.27-105.5-89Z"/>
  <path class="cls-56" d="M1456.29,269.67c18.05,1.02,36.05,2.36,54,4,15.94,45.61,22.28,92.61,19,141-20.38-.81-40.71-2.15-61-4,5.5-47.81,1.5-94.81-12-141Z"/>
  <path class="cls-46" d="M87.29,314.67c18.24,1.85,36.58,3.18,55,4-5.72,34.06-5.22,68.06,1.5,102,1.78,7.18,4.61,13.85,8.5,20-23.99-1.84-47.99-3.51-72-5-4.14-40.68-1.8-81.02,7-121Z"/>
  <path class="cls-41" d="M275.29,328.67c25.7,1.24,51.36,2.91,77,5-29.53,35.04-53.53,73.7-72,116-29.3-2.38-58.63-4.38-88-6,7.1-5.26,14.1-10.76,21-16.5,26.55-29.07,47.22-61.9,62-98.5Z"/>
  <path class="cls-17" d="M1304.29,399.67c24.34,1.53,48.68,3.2,73,5,10.47,12.64,22.14,24.14,35,34.5,7.94,5.89,16.77,9.72,26.5,11.5,12.39-2.38,20.39-9.72,24-22,2.17-6.03,4-12.03,5.5-18,20.29,1.85,40.62,3.19,61,4-1.89,35.31-8.73,69.64-20.5,103-2.28,5.54-4.78,10.88-7.5,16-48.73-2.77-97.4-6.1-146-10-11.5-43.66-28.5-85-51-124Z"/>
  <path class="cls-23" d="M1579.29,418.67h-3c-1.47-3.87-1.97-7.87-1.5-12,1.61,3.98,3.11,7.98,4.5,12Z"/>
  <path class="cls-21" d="M1576.29,418.67h3c16.12,39.49,26.12,80.49,30,123-9-.62-18-1.29-27-2,2.8-40.59.8-80.92-6-121Z"/>
  <path class="cls-34" d="M32.29,432.67c-2.22-.87-4.55-1.2-7-1,.68-5.52,3.68-8.35,9-8.5-.93,3.09-1.6,6.25-2,9.5Z"/>
  <path class="cls-50" d="M25.29,431.67c2.45-.2,4.78.13,7,1-3.39,20.86-5.39,41.86-6,63-3.79.49-4.46-.34-2-2.5-1.33-.17-2.67-.33-4-.5-4.12,1.56-8.45,2.22-13,2,4.29-21.5,10.29-42.5,18-63Z"/>
  <path class="cls-2" d="M80.29,435.67c24.01,1.49,48.01,3.16,72,5,6.98,8.93,15.98,11.77,27,8.5,4.51-1.55,8.85-3.39,13-5.5,29.37,1.62,58.7,3.62,88,6-8.87,20.28-16.54,40.95-23,62-1.7.16-3.37,0-5-.5,2.66-1.98,2.16-2.82-1.5-2.5-2.76.91-5.59,1.57-8.5,2-3.79.4-4.45-.43-2-2.5-1.33-.17-2.67-.33-4-.5-2.91.43-5.74,1.09-8.5,2-1.17-.33-2.33-.67-3.5-1,.21-.59.54-1.09,1-1.5-1.17-.17-2.33-.33-3.5-.5-2.76.91-5.59,1.57-8.5,2-3.79.4-4.45-.43-2-2.5-1.33-.17-2.67-.33-4-.5-2.91.43-5.74,1.09-8.5,2-1.17-.17-2.33-.33-3.5-.5.46-.41.79-.91,1-1.5-1.17-.33-2.33-.67-3.5-1-2.76.91-5.59,1.57-8.5,2-3.79.4-4.45-.43-2-2.5-4.09-.48-8.09.02-12,1.5-3.79.4-4.45-.43-2-2.5-1.33-.17-2.67-.33-4-.5-2.91.43-5.74,1.09-8.5,2-1.17-.33-2.33-.67-3.5-1,.21-.59.54-1.09,1-1.5-1.17-.17-2.33-.33-3.5-.5-2.76.91-5.59,1.57-8.5,2-3.79.4-4.45-.43-2-2.5-1.33-.17-2.67-.33-4-.5-2.91.43-5.74,1.09-8.5,2-1.17-.17-2.33-.33-3.5-.5.46-.41.79-.91,1-1.5-1.17-.33-2.33-.67-3.5-1-2.76.91-5.59,1.57-8.5,2-3.79.4-4.45-.43-2-2.5-1.33-.17-2.67-.33-4-.5-3.46,1.41-7.13,2.08-11,2-8.17-20.81-13.17-42.48-15-65Z"/>
  <path class="cls-3" d="M26.29,495.67c-.57,19.81.43,39.47,3,59-9.65-.84-19.32-1.51-29-2,.87-19.53,3.21-38.86,7-58,4.55.22,8.88-.44,13-2,1.33.17,2.67.33,4,.5-2.46,2.16-1.79,2.99,2,2.5Z"/>
  <path class="cls-18" d="M257.29,511.67c-4.64,19.23-8.64,38.56-12,58-39.97-3.07-79.97-5.73-120-8-12.9-18.8-22.9-39.13-30-61,3.87.08,7.54-.59,11-2,1.33.17,2.67.33,4,.5-2.45,2.07-1.79,2.9,2,2.5,2.91-.43,5.74-1.09,8.5-2,1.17.33,2.33.67,3.5,1-.21.59-.54,1.09-1,1.5,1.17.17,2.33.33,3.5.5,2.76-.91,5.59-1.57,8.5-2,1.33.17,2.67.33,4,.5-2.45,2.07-1.79,2.9,2,2.5,2.91-.43,5.74-1.09,8.5-2,1.17.17,2.33.33,3.5.5-.46.41-.79.91-1,1.5,1.17.33,2.33.67,3.5,1,2.76-.91,5.59-1.57,8.5-2,1.33.17,2.67.33,4,.5-2.45,2.07-1.79,2.9,2,2.5,3.91-1.48,7.91-1.98,12-1.5-2.45,2.07-1.79,2.9,2,2.5,2.91-.43,5.74-1.09,8.5-2,1.17.33,2.33.67,3.5,1-.21.59-.54,1.09-1,1.5,1.17.17,2.33.33,3.5.5,2.76-.91,5.59-1.57,8.5-2,1.33.17,2.67.33,4,.5-2.45,2.07-1.79,2.9,2,2.5,2.91-.43,5.74-1.09,8.5-2,1.17.17,2.33.33,3.5.5-.46.41-.79.91-1,1.5,1.17.33,2.33.67,3.5,1,2.76-.91,5.59-1.57,8.5-2,1.33.17,2.67.33,4,.5-2.45,2.07-1.79,2.9,2,2.5,2.91-.43,5.74-1.09,8.5-2,3.66-.32,4.16.52,1.5,2.5,1.63.49,3.3.66,5,.5Z"/>
  <path class="cls-10" d="M1355.29,523.67c48.6,3.9,97.27,7.23,146,10-1.91,4.42-4.07,8.76-6.5,13-11.25,14.84-21.75,30.17-31.5,46-3.72-.13-7.22.53-10.5,2-1.17-.17-2.33-.33-3.5-.5.46-.41.79-.91,1-1.5-1.17-.33-2.33-.67-3.5-1-2.75.91-5.59,1.57-8.5,2-3.79.4-4.45-.43-2-2.5-1.33-.17-2.67-.33-4-.5-3.91,1.48-7.91,1.98-12,1.5,2.45-2.07,1.79-2.9-2-2.5-3,.67-6,1.33-9,2-3.79.4-4.45-.43-2-2.5-1.17-.17-2.33-.33-3.5-.5-2.75.91-5.59,1.57-8.5,2-3.79.4-4.45-.43-2-2.5-1.33-.17-2.67-.33-4-.5-2.91.43-5.75,1.09-8.5,2-1.17-.17-2.33-.33-3.5-.5.46-.41.79-.91,1-1.5-1.17-.33-2.33-.67-3.5-1-2.59.45-5.09,1.11-7.5,2-2.2-22.02-6.2-43.68-12-65Z"/>
  <path class="cls-29" d="M1582.29,539.67c9,.71,18,1.38,27,2,1.66,20.46,1,40.79-2,61-3.72-.13-7.22.53-10.5,2-3.66.32-4.16-.52-1.5-2.5-1.33-.17-2.67-.33-4-.5-3,.67-6,1.33-9,2-3.79.4-4.45-.43-2-2.5-3.32-.93-6.32-.43-9,1.5,5.08-20.79,8.74-41.79,11-63Z"/>
  <path class="cls-9" d="M.29,552.67c9.68.49,19.35,1.16,29,2,4.99,44.99,19.33,86.65,43,125-17.34-.91-34.67-1.91-52-3C5.16,636.78-1.51,595.45.29,552.67Z"/>
  <path class="cls-58" d="M125.29,561.67c40.03,2.27,80.03,4.93,120,8-2.66,20.25-4.33,40.58-5,61,.6,20.48,2.6,40.81,6,61-20.37-.91-40.7-2.24-61-4-9.97-29.62-22.47-58.29-37.5-86-7.78-13.23-15.28-26.56-22.5-40Z"/>
  <path class="cls-55" d="M1463.29,592.67c-10.72,19.09-20.05,38.76-28,59-22.34-1.19-44.68-2.52-67-4,1.03-19.68.7-39.34-1-59,2.41-.89,4.91-1.55,7.5-2,1.17.33,2.33.67,3.5,1-.21.59-.54,1.09-1,1.5,1.17.17,2.33.33,3.5.5,2.75-.91,5.59-1.57,8.5-2,1.33.17,2.67.33,4,.5-2.45,2.07-1.79,2.9,2,2.5,2.91-.43,5.75-1.09,8.5-2,1.17.17,2.33.33,3.5.5-2.45,2.07-1.79,2.9,2,2.5,3-.67,6-1.33,9-2,3.79-.4,4.45.43,2,2.5,4.09.48,8.09-.02,12-1.5,1.33.17,2.67.33,4,.5-2.45,2.07-1.79,2.9,2,2.5,2.91-.43,5.75-1.09,8.5-2,1.17.33,2.33.67,3.5,1-.21.59-.54,1.09-1,1.5,1.17.17,2.33.33,3.5.5,3.28-1.47,6.78-2.13,10.5-2Z"/>
  <path class="cls-37" d="M1607.29,602.67c-3.01,20.4-7.68,40.4-14,60-15.04-.57-30.04-1.57-45-3,9.09-18.51,16.76-37.51,23-57,2.68-1.93,5.68-2.43,9-1.5-2.45,2.07-1.79,2.9,2,2.5,3-.67,6-1.33,9-2,1.33.17,2.67.33,4,.5-2.66,1.98-2.16,2.82,1.5,2.5,3.28-1.47,6.78-2.13,10.5-2Z"/>
  <path class="cls-11" d="M1368.29,647.67c22.32,1.48,44.66,2.81,67,4-3.53,11.41-7.36,22.74-11.5,34-7.78,28.81-15.61,57.47-23.5,86-18.67-.91-37.34-1.91-56-3,12.36-39.47,20.36-79.8,24-121Z"/>
  <path class="cls-42" d="M1548.29,659.67c14.96,1.43,29.96,2.43,45,3-10.21,26.41-23.04,51.41-38.5,75-12.74,15.91-27.24,29.91-43.5,42-25.01-1.53-50.01-3.19-75-5,32.09-20.24,60.43-45.07,85-74.5,1.58-.71,3.08-1.54,4.5-2.5,8.27-12.2,15.77-24.87,22.5-38Z"/>
  <path class="cls-54" d="M20.29,676.67c17.33,1.09,34.66,2.09,52,3,25.98,37.48,58.32,68.32,97,92.5,10.9,6.37,22.4,11.2,34.5,14.5,5.71-.39,7.71-3.39,6-9-8.48-29.94-16.65-59.94-24.5-90,20.3,1.76,40.63,3.09,61,4,8.42,48.37,22.42,95.03,42,140-44.67-3.33-89.33-6.67-134-10-32.94-20.6-63.11-44.93-90.5-73-8.05-9.72-15.72-19.72-23-30-1.4-2.86-2.4-5.86-3-9-6.88-10.42-12.71-21.42-17.5-33Z"/>
  <path class="cls-4" d="M1344.29,768.67c18.66,1.09,37.33,2.09,56,3-3.08,7.67-.91,13.01,6.5,16,9.95-4.04,19.79-8.37,29.5-13,24.99,1.81,49.99,3.47,75,5-14.93,10.48-29.93,20.98-45,31.5-21.84,18.91-41,40.08-57.5,63.5-7.51,11.03-15.01,22.03-22.5,33-33.65-2.55-67.31-4.89-101-7,25.09-41.51,44.75-85.51,59-132Z"/>
  <path class="cls-38" d="M426.29,840.67c-6.34-.15-12.68-.49-19-1,8.58-24.82,20.08-48.15,34.5-70-3.3,13.25-6.63,26.58-10,40-2.27,10.27-4.1,20.6-5.5,31Z"/>
  <path class="cls-19" d="M1214.29,895.67c-9.32-.76-18.66-1.43-28-2,.04-41.76-6.63-82.43-20-122,.33-.33.67-.67,1-1,12.27,14.18,21.77,30.18,28.5,48,9.29,24.95,15.46,50.61,18.5,77Z"/>
  <path class="cls-8" d="M154.29,821.67c44.67,3.33,89.33,6.67,134,10,18.32,43.59,42.65,83.26,73,119-38.06-2.19-76.06-4.86-114-8-6.05-7.08-11.89-14.41-17.5-22-17.58-24.83-34.91-49.83-52-75-7.37-8.53-15.2-16.53-23.5-24Z"/>
  <path class="cls-51" d="M407.29,839.67c6.32.51,12.66.85,19,1-6.13,38.6-4.8,76.93,4,115-12.75-.65-25.41-1.65-38-3-2.3-38.62,2.7-76.29,15-113Z"/>
  <path class="cls-31" d="M1059.29,884.67c-5.02-.11-10.02-.45-15-1,.07-13.37-.1-26.7-.5-40,6.44,13.15,11.61,26.82,15.5,41Z"/>
  <path class="cls-22" d="M565.29,850.67h-3c3.36-7.77,4.36-7.77,3,0Z"/>
  <path class="cls-35" d="M562.29,850.67h3c-1.01,15.65-1.17,31.32-.5,47,2.38,22.8,5.54,45.46,9.5,68-10.99-.76-21.99-1.42-33-2-1.09-39.22,5.91-76.89,21-113Z"/>
  <path class="cls-12" d="M1044.29,883.67c4.98.55,9.98.89,15,1,5.76,20.07,7.43,40.4,5,61,1.4,18.01,1.06,36.01-1,54-12.7-.81-25.37-1.81-38-3,6.1-19.73,11.27-39.73,15.5-60,1.63-17.64,2.8-35.31,3.5-53Z"/>
  <path class="cls-61" d="M1186.29,893.67c9.34.57,18.68,1.24,28,2,.9,13.65,1.57,27.32,2,41-.7,17.36-1.53,34.7-2.5,52,4.7-3.19,9.04-6.86,13-11,21.46-24.3,40.96-49.96,58.5-77,33.69,2.11,67.35,4.45,101,7-25.96,38.64-55.29,74.64-88,108-46.33-3.04-92.66-6.04-139-9,17.64-35.55,26.64-73.22,27-113Z"/>
  <path class="cls-36" d="M247.29,942.67c37.94,3.14,75.94,5.81,114,8,9.97,12.14,21.14,23.14,33.5,33-.8-10.3-1.63-20.63-2.5-31,12.59,1.35,25.25,2.35,38,3,7.1,33.86,20.93,64.52,41.5,92,8.34,9.83,16.84,19.5,25.5,29-42.33-3.05-84.66-6.05-127-9-22.69-16.31-43.86-34.64-63.5-55-20.79-22.62-40.63-45.95-59.5-70Z"/>
  <path class="cls-7" d="M541.29,963.67c11.01.58,22.01,1.24,33,2,11.66,41.99,27.99,81.99,49,120-16.96-1.57-33.96-2.9-51-4-17.83-37.3-28.16-76.63-31-118Z"/>
  <path class="cls-7" d="M1025.29,996.67c12.63,1.19,25.3,2.19,38,3-7.74,40.46-22.4,78.12-44,113-16.99-1.24-33.99-2.24-51-3,24.02-35.03,43.02-72.7,57-113Z"/>
  <path class="cls-16" d="M1159.29,1006.67c46.34,2.96,92.67,5.96,139,9-19.94,21.11-41.27,40.61-64,58.5-15.61,10.61-30.95,21.61-46,33-8.05,5.69-16.39,10.86-25,15.5-34.01-2.24-68.01-4.58-102-7,43.01-27.02,75.68-63.36,98-109Z"/>
  <path class="cls-15" d="M370.29,1067.67c42.34,2.95,84.67,5.95,127,9,24.26,22.13,50.92,40.79,80,56-44.36-2.69-88.69-5.69-133-9-16.66-10.14-32.66-21.31-48-33.5-8.86-7.36-17.53-14.86-26-22.5Z"/>
  <path class="cls-25" d="M572.29,1081.67c17.04,1.1,34.04,2.43,51,4,11.43,18.51,24.09,36.18,38,53-19.68-1.19-39.34-2.52-59-4-11.26-16.85-21.26-34.52-30-53Z"/>
  <path class="cls-60" d="M968.29,1109.67c17.01.76,34.01,1.76,51,3-5.6,10.36-11.6,20.53-18,30.5,21.05-6.69,41.05-15.86,60-27.5,33.99,2.42,67.99,4.76,102,7-25.86,16.77-52.86,31.77-81,45-51.34-3.29-102.67-6.62-154-10,14.49-15.15,27.83-31.15,40-48Z"/>
  <path class="cls-57" d="M444.29,1123.67c44.31,3.31,88.64,6.31,133,9,10.61,4.97,21.28,9.97,32,15,.33-.17.67-.33,1-.5-3.06-3.97-5.73-8.14-8-12.5,19.66,1.48,39.32,2.81,59,4,13.34,15.84,28.67,29.34,46,40.5,5.78,3.44,11.78,6.44,18,9,4.57,2.63,6.07,6.47,4.5,11.5-1.26,2.86-2.76,5.52-4.5,8-48.69-3.02-97.36-6.36-146-10-29.61-15.14-59.28-30.31-89-45.5-15.9-8.77-31.23-18.27-46-28.5Z"/>
  <path class="cls-47" d="M928.29,1157.67c51.33,3.38,102.66,6.71,154,10-21.05,10.02-41.71,20.86-62,32.5-11.73,7.57-22.73,16.07-33,25.5-31.68-1.76-63.35-3.76-95-6-6.12-6.22-11.29-13.22-15.5-21-1.29-4.08-.13-7.25,3.5-9.5,17.88-7.76,33.88-18.26,48-31.5Z"/>
  <path class="cls-6" d="M579.29,1197.67c48.64,3.64,97.31,6.98,146,10-12.41,18.23-29.08,31.07-50,38.5-8.62,3.32-17.45,5.82-26.5,7.5-2.3.01-4.47-.49-6.5-1.5-17.84-22.03-38.84-40.19-63-54.5Z"/>
  <path class="cls-44" d="M515.29,1201.67c3.3-.17,3.63.5,1,2-.8-.46-1.13-1.12-1-2Z"/>
  <path class="cls-28" d="M892.29,1219.67c31.65,2.24,63.32,4.24,95,6-7.83,8.67-15.5,17.5-23,26.5-1.87.98-3.87,1.48-6,1.5-21.42-3.88-40.75-12.38-58-25.5-2.87-2.7-5.54-5.54-8-8.5Z"/>
  <path class="cls-40" d="M597.29,1359.67c42.76-2.59,77.92,12.41,105.5,45,8.66,10.64,16.32,21.98,23,34,.67,1.67.67,3.33,0,5-20.26-15.14-42.76-19.64-67.5-13.5-28.83,5.02-52.66-3.48-71.5-25.5-4.83-7-9.67-14-14.5-21,2.69-4.05,4.86-8.39,6.5-13,4.47-6.65,10.64-10.31,18.5-11Z"/>
  <path class="cls-48" d="M1024.29,1363.67c-13.52-.44-26.86-1.44-40-3,9.97-1.06,19.97-1.23,30-.5,3.75.3,7.08,1.47,10,3.5Z"/>
  <path class="cls-43" d="M984.29,1360.67c13.14,1.56,26.48,2.56,40,3,2.23.73,4.07,2.06,5.5,4,2.56,5.46,5.4,10.79,8.5,16-7.44,12.36-16.44,23.52-27,33.5-17.79,12.23-37.46,16.56-59,13-24.71-5.97-47.21-1.47-67.5,13.5-.67-1.67-.67-3.33,0-5,15.83-30.5,39-53.67,69.5-69.5,9.66-4.08,19.66-6.91,30-8.5Z"/>
</svg>